<svg width="122" height="19" viewBox="0 0 122 19" fill="none" xmlns="http://www.w3.org/2000/svg">
<path d="M0.0507812 0.785156H12.6016V2.89453H2.32422V8.12109H11.8281V10.1133H2.32422V15.9492H12.7773V18H0.0507812V0.785156ZM23.0898 0.316406C25.2695 0.316406 26.9609 0.890625 28.1641 2.03906C29.3672 3.1875 30.0352 4.49219 30.168 5.95312H27.8945C27.6367 4.84375 27.1211 3.96484 26.3477 3.31641C25.582 2.66797 24.5039 2.34375 23.1133 2.34375C21.418 2.34375 20.0469 2.94141 19 4.13672C17.9609 5.32422 17.4414 7.14844 17.4414 9.60938C17.4414 11.625 17.9102 13.2617 18.8477 14.5195C19.793 15.7695 21.1992 16.3945 23.0664 16.3945C24.7852 16.3945 26.0938 15.7344 26.9922 14.4141C27.4688 13.7188 27.8242 12.8047 28.0586 11.6719H30.332C30.1289 13.4844 29.457 15.0039 28.3164 16.2305C26.9492 17.707 25.1055 18.4453 22.7852 18.4453C20.7852 18.4453 19.1055 17.8398 17.7461 16.6289C15.957 15.0273 15.0625 12.5547 15.0625 9.21094C15.0625 6.67188 15.7344 4.58984 17.0781 2.96484C18.5312 1.19922 20.5352 0.316406 23.0898 0.316406ZM40.6094 0.316406C43.6484 0.316406 45.8984 1.29297 47.3594 3.24609C48.5 4.76953 49.0703 6.71875 49.0703 9.09375C49.0703 11.6641 48.418 13.8008 47.1133 15.5039C45.582 17.5039 43.3984 18.5039 40.5625 18.5039C37.9141 18.5039 35.832 17.6289 34.3164 15.8789C32.9648 14.1914 32.2891 12.0586 32.2891 9.48047C32.2891 7.15234 32.8672 5.16016 34.0234 3.50391C35.5078 1.37891 37.7031 0.316406 40.6094 0.316406ZM40.8438 16.418C42.8984 16.418 44.3828 15.6836 45.2969 14.2148C46.2188 12.7383 46.6797 11.043 46.6797 9.12891C46.6797 7.10547 46.1484 5.47656 45.0859 4.24219C44.0312 3.00781 42.5859 2.39062 40.75 2.39062C38.9688 2.39062 37.5156 3.00391 36.3906 4.23047C35.2656 5.44922 34.7031 7.25 34.7031 9.63281C34.7031 11.5391 35.1836 13.1484 36.1445 14.4609C37.1133 15.7656 38.6797 16.418 40.8438 16.418ZM53.3828 12.4453C53.4375 13.4219 53.668 14.2148 54.0742 14.8242C54.8477 15.9648 56.2109 16.5352 58.1641 16.5352C59.0391 16.5352 59.8359 16.4102 60.5547 16.1602C61.9453 15.6758 62.6406 14.8086 62.6406 13.5586C62.6406 12.6211 62.3477 11.9531 61.7617 11.5547C61.168 11.1641 60.2383 10.8242 58.9727 10.5352L56.6406 10.0078C55.1172 9.66406 54.0391 9.28516 53.4062 8.87109C52.3125 8.15234 51.7656 7.07812 51.7656 5.64844C51.7656 4.10156 52.3008 2.83203 53.3711 1.83984C54.4414 0.847656 55.957 0.351562 57.918 0.351562C59.7227 0.351562 61.2539 0.789062 62.5117 1.66406C63.7773 2.53125 64.4102 3.92188 64.4102 5.83594H62.2188C62.1016 4.91406 61.8516 4.20703 61.4688 3.71484C60.7578 2.81641 59.5508 2.36719 57.8477 2.36719C56.4727 2.36719 55.4844 2.65625 54.8828 3.23438C54.2812 3.8125 53.9805 4.48438 53.9805 5.25C53.9805 6.09375 54.332 6.71094 55.0352 7.10156C55.4961 7.35156 56.5391 7.66406 58.1641 8.03906L60.5781 8.58984C61.7422 8.85547 62.6406 9.21875 63.2734 9.67969C64.3672 10.4844 64.9141 11.6523 64.9141 13.1836C64.9141 15.0898 64.2188 16.4531 62.8281 17.2734C61.4453 18.0938 59.8359 18.5039 58 18.5039C55.8594 18.5039 54.1836 17.957 52.9727 16.8633C51.7617 15.7773 51.168 14.3047 51.1914 12.4453H53.3828ZM70.3984 0.785156V11.4258C70.3984 12.6758 70.6328 13.7148 71.1016 14.543C71.7969 15.793 72.9688 16.418 74.6172 16.418C76.5938 16.418 77.9375 15.7422 78.6484 14.3906C79.0312 13.6562 79.2227 12.668 79.2227 11.4258V0.785156H81.5898V10.4531C81.5898 12.5703 81.3047 14.1992 80.7344 15.3398C79.6875 17.418 77.7109 18.457 74.8047 18.457C71.8984 18.457 69.9258 17.418 68.8867 15.3398C68.3164 14.1992 68.0312 12.5703 68.0312 10.4531V0.785156H70.3984ZM85.2109 0.785156H87.9648L96.6602 14.7305V0.785156H98.875V18H96.2617L87.4375 4.06641V18H85.2109V0.785156ZM114.613 0.785156L116.781 6.86719L118.973 0.785156H121.387V9.28125H119.828V2.42578L117.473 9.28125H116.113L113.746 2.42578V9.28125H112.188V0.785156H114.613ZM103.504 2.20312V0.785156H110.746V2.20312H107.969V9.28125H106.281V2.20312H103.504Z" fill="#2F4858"/>
</svg>
