<svg width="12" height="12" viewBox="0 0 12 12" fill="none" xmlns="http://www.w3.org/2000/svg">
<path d="M4.96777 2.51465C4.02441 2.69238 3.36133 3.37598 2.97852 4.56543C2.78711 5.15332 2.69141 5.73438 2.69141 6.30859C2.69141 6.37695 2.69141 6.43848 2.69141 6.49316C2.70508 6.53418 2.71875 6.63672 2.73242 6.80078H4.96777V11.2715H0.599609V7.14941C0.599609 5.12598 1.00293 3.56738 1.80957 2.47363C2.61621 1.37988 3.66895 0.750977 4.96777 0.586914V2.51465ZM11.8789 2.51465C11.127 2.6377 10.5527 3.06152 10.1562 3.78613C9.77344 4.51074 9.58203 5.34473 9.58203 6.28809C9.58203 6.37012 9.58203 6.45215 9.58203 6.53418C9.5957 6.61621 9.61621 6.70508 9.64355 6.80078H11.8789V11.2715H7.49023V7.14941C7.49023 5.52246 7.83203 4.07324 8.51562 2.80176C9.19922 1.5166 10.3203 0.77832 11.8789 0.586914V2.51465Z" fill="#848889"/>
</svg>
